<?xml version="1.0" standalone="no"?><!DOCTYPE svg PUBLIC "-//W3C//DTD SVG 1.1//EN" "http://www.w3.org/Graphics/SVG/1.1/DTD/svg11.dtd"><svg t="1613180368781" class="icon" viewBox="0 0 1024 1024" version="1.1" xmlns="http://www.w3.org/2000/svg" p-id="3561" xmlns:xlink="http://www.w3.org/1999/xlink" width="32" height="32"><defs><style type="text/css"></style></defs><path d="M511.999878 0C229.254041 0 0 228.132517 0 509.634926c0 173.470435 86.991217 326.60716 219.867376 418.669615 25.161137-87.235027 87.649503-153.478059 172.787769-185.539004-16.652187 19.480376 1.80419 161.816342 29.11085 142.6773l45.104751-31.500183 45.007227-31.646469-2.974475-2.07238-42.008371-29.427803-65.340937-48.323036a10.069331 10.069331 0 0 0-2.925713-1.560381l-0.512-0.146285-1.26781 0.438857c4.364189-1.560381 8.75276-3.047618 13.165712-4.388571l3.754665-1.194666c8.630855-2.559999 17.310472-4.754285 26.136375-6.582855a353.64563 353.64563 0 0 1 27.989327-4.656761l4.193523-0.560762c4.681142-0.536381 9.362283-0.975238 14.043425-1.340952h51.858273c4.705523 0.341333 9.386664 0.804571 14.019044 1.340952l4.339809 0.536381a357.595343 357.595343 0 0 1 23.722661 3.827808l4.217904 0.853334c4.339808 0.902095 8.606474 1.877333 12.848759 2.925713l0.341333 0.097524c4.315428 1.097143 8.557712 2.291809 12.775616 3.535237l3.998475 1.267809a327.338589 327.338589 0 0 1 13.068187 4.388571c-0.536381-0.219429-1.072762-0.390095-1.633523-0.585143l-0.243809 0.073143a9.313522 9.313522 0 0 0-3.608381 1.706666l-64.853317 48.347417-42.130276 29.452184-2.974476 2.07238 45.104752 31.622088 45.007227 31.524564c27.501708 19.260948 45.714275-125.147399 28.452565-143.043014 85.625884 31.890278 148.504346 98.255215 173.787387 185.831575C937.057301 836.168944 1023.999756 683.056599 1023.999756 509.634926 1023.999756 228.132517 794.745716 0 511.999878 0z m0 722.358685c-130.438064 0-236.592706-103.155785-240.859371-231.984707l-0.438857-0.243809c-4.949332-92.038073 42.861704-162.937866 103.765308-204.848713 1.121524-0.78019 2.243047-1.584762 3.388952-2.340571 1.145904-0.78019 2.31619-1.462857 3.462094-2.218666 2.194285-1.389714 4.339808-2.803809 6.534094-4.12038 2.194285-1.29219 4.364189-2.511237 6.558475-3.754666l2.876951-1.633523c34.694087-18.919615 71.85065-28.915803 105.033118-28.623232 3.218285-0.121905 6.43657-0.243809 9.679236-0.243809 3.09638 0 6.168379 0.121905 9.240379 0.243809 26.550851-0.195048 55.588558 6.168379 83.894837 18.358853a241.127562 241.127562 0 0 1 68.144746 43.056752c48.93256 42.910466 84.041123 106.64226 79.774457 186.099765l-0.219429 0.121905c-4.144761 128.902065-110.372545 232.106611-240.83499 232.106611z" fill="#D3F2FB" p-id="3562"></path><path d="M399.969429 279.771362l2.876951-2.438095c-0.975238 0.804571-1.901714 1.657904-2.876951 2.438095z m126.000731-30.354279a98.937881 98.937881 0 0 0-9.191616-0.560761c-3.218285 0-6.387808 0.26819-9.581712 0.585142 3.120761 0.073143 6.19276 0.341333 9.240378 0.853334 3.169523-0.536381 6.339046-0.828952 9.53295-0.877715z m-138.971395 37.400373c2.145523-1.389714 4.291047-2.779428 6.485332-4.096-2.194285 1.316571-4.339808 2.706285-6.485332 4.096z m-6.826665 4.632379c1.121524-0.78019 2.218666-1.633523 3.364571-2.438094-1.145904 0.804571-2.243047 1.657904-3.364571 2.438094z m229.132136-24.356565a258.267367 258.267367 0 0 1 67.681508 42.959228 239.494038 239.494038 0 0 0-67.681508-42.959228z m-131.998445 123.855208c-46.006846 80.749695-123.952732 152.283392-199.777476 104.984356 4.242285 128.487588 109.71426 231.375183 239.250229 231.375183 129.609112 0 235.105468-102.960737 239.250228-231.521468-63.317318 39.497133-229.424707-17.724948-278.722981-104.838071z" fill="#FFE4D3" p-id="3563"></path><path d="M597.479477 731.720969l0.828952 0.219428-0.828952-0.219428z m27.794279 8.850283l0.243809-0.097524 1.633524 0.902095-4.36419-2.438094 2.535619 1.414095-0.048762 0.243809z m-45.348561-13.238854c1.438476 0.682667 2.852571 1.340952 4.242285 2.048-1.389714-0.731428-2.803809-1.365333-4.217904-2.048z m50.346655 14.384759c17.26171 18.236948-0.975238 165.400342-28.403803 145.79806l-44.958465-32.134087-45.080371-32.255993-44.958465 32.255993-45.055989 32.109706c-27.30666 19.504757-45.714275-125.561875-29.08647-145.407965-85.065123 32.670468-147.480346 100.181309-172.617101 189.074241A503.710356 503.710356 0 0 0 511.951116 1023.999756c108.519593 0 209.13976-34.352754 291.937455-92.891406-25.258661-89.234264-88.063979-156.915772-173.616721-189.415574z m-229.132136-2.755047a223.500137 223.500137 0 0 0-4.242285 2.438094l1.26781-0.731428 0.53638 0.243809-0.097523-0.487618 2.535618-1.462857z" fill="#4980F4" p-id="3564"></path><path d="M511.853592 820.857709c-1.024 0-2.023619-0.048762-3.023237-0.073143l2.925714 2.438095 2.925713-2.438095c-0.950857 0.024381-1.877333 0.073143-2.82819 0.073143z m96.694835-82.358837c1.316571 0.78019 2.633142 1.633523 3.925332 2.438094-1.29219-0.804571-2.608761-1.657904-3.925332-2.438094z m-167.643389-5.095618l3.900951-1.926095c-1.29219 0.658286-2.608761 1.267809-3.900951 1.950476z m110.323783-6.046475c1.414095 0.414476 2.82819 0.926476 4.266666 1.365333-1.438476-0.463238-2.852571-0.950857-4.266666-1.365333z m-139.702824 13.604568c1.219047-0.804571 2.438095-1.657904 3.657142-2.438094-1.219047 0.78019-2.438095 1.633523-3.657142 2.438094z m56.90513-12.263616c1.389714-0.438857 2.755047-0.902095 4.14476-1.316571-1.389714 0.414476-2.755047 0.877714-4.14476 1.316571z" fill="#D5E270" p-id="3565"></path><path d="M519.655495 822.954471l42.666657-28.769517 65.609127-47.299037a9.679236 9.679236 0 0 1 3.657142-1.706666l0.048762-0.121905-2.559999-0.877714c-2.925714-0.975238-5.851427-1.901714-8.801522-2.779428-1.365333-0.414476-2.681904-0.828952-4.071618-1.219047-4.266666-1.243428-8.582093-2.389333-12.921902-3.462094l-0.341333-0.097524a341.772109 341.772109 0 0 0-12.995045-2.876952l-4.291046-0.828952a354.742773 354.742773 0 0 0-24.015233-3.754666l-4.38857-0.512c-4.705523-0.536381-9.435426-0.975238-14.16533-1.316571h-52.492178c-4.729904 0.341333-9.484188 0.78019-14.214092 1.316571-1.438476 0.146286-2.82819 0.341333-4.266666 0.512a353.158011 353.158011 0 0 0-24.283422 3.803428l-4.022856 0.755809a341.577062 341.577062 0 0 0-26.428947 6.485332l-3.803427 1.145905c-3.047618 0.902095-6.070856 1.852952-9.045331 2.85257-0.877714 0.26819-1.706666 0.585143-2.584381 0.877714l0.097524 0.268191a10.264379 10.264379 0 0 1 2.974476 1.535999l66.096746 47.274656 42.544751 28.769517c1.024 0.048762 2.07238 0.097524 3.120762 0.097524 0.975238 0 1.926095-0.048762 2.876951-0.073143z" fill="#FEFEFE" p-id="3566"></path><path d="M468.943126 390.241431c48.981322 86.674265 214.064711 143.603775 276.967554 104.301689l0.219428-0.121904c4.193523-78.847981-30.427421-142.092157-78.750457-184.636909a256.682606 256.682606 0 0 0-67.267032-42.739799c-27.916184-12.09295-56.612558-18.407615-82.822075-18.212567-3.169523 0-6.339046 0.121905-9.459808 0.341333 8.167617 29.159612-8.216379 87.186265-38.88761 141.068157z" fill="#454545" p-id="3567"></path><path d="M475.98922 384.487528c30.549326-55.344749 46.860179-114.931782 38.716943-144.871585a144.74968 144.74968 0 0 0-9.142855-0.365714c-32.646087-0.292571-69.168745 9.898664-103.253309 29.183993-0.975238 0.536381-1.901714 1.121524-2.828189 1.657904-2.169904 1.267809-4.315428 2.486857-6.43657 3.827809-2.169904 1.340952-4.291047 2.755047-6.43657 4.193523l-3.413333 2.243047c-1.121524 0.78019-2.194285 1.609142-3.315808 2.413713-59.879605 42.666657-106.861689 114.931782-102.009881 208.725284l0.438857 0.243809c75.020173 48.347417 152.137107-24.746661 197.680715-107.227403z" fill="#656565" p-id="3568"></path></svg>